<svg id="Layer_1" x="0px" y="0px" viewBox="0 0 512 512" xml:space="preserve" ><g><path d="m467 0h-182c-24.813 0-45 20.187-45 45v121c0 24.813 20.187 45 45 45h16v45c0 6.067 3.655 11.536 9.26 13.858s12.057 1.038 16.347-3.251l55.606-55.607h84.787c24.813 0 45-20.187 45-45v-121c0-24.813-20.187-45-45-45zm15 166c0 8.271-6.729 15-15 15h-91c-3.978 0-7.793 1.58-10.606 4.393l-34.394 34.394v-23.787c0-8.284-6.716-15-15-15h-31c-8.271 0-15-6.729-15-15v-121c0-8.271 6.729-15 15-15h182c8.271 0 15 6.729 15 15z"/><path d="m395.394 80.393-34.394 34.394-11.894-11.894c-5.857-5.858-15.355-5.858-21.213 0s-5.858 15.355 0 21.213l22.5 22.5c5.857 5.857 15.355 5.858 21.213 0l45-45c5.858-5.858 5.858-15.355 0-21.213-5.857-5.858-15.355-5.858-21.212 0z"/><path d="m30.002 436.96c0 .013-.002.026-.002.04v60c0 8.284 6.716 15 15 15h180c6.457 0 12.188-4.131 14.23-10.256l16.588-49.764c24.436-.441 44.182-20.441 44.182-44.98 0-14.423-6.828-27.273-17.413-35.514l16.666-50.811c1.499-4.57.716-9.581-2.105-13.475-2.821-3.895-7.338-6.2-12.147-6.2h-16.509c-6.968-34.192-37.271-60-73.491-60h-120.001c-41.355 0-75 33.645-75 75v61c0 24.485 11.797 46.264 30.002 59.96zm29.998 13.531c4.848.988 9.864 1.509 15 1.509h29.114l-9.945 30h-34.169zm65.775 31.509c.253-.764 49.544-149.432 50.056-151h88.463l-10.168 31h-29.126c-8.284 0-15 6.716-15 15v60c0 8.015 6.291 14.542 14.202 14.96l-10.014 30.04zm129.225-60c-4.531 0-8.209 0-15 0v-30h15c8.271 0 15 6.729 15 15s-6.729 15-15 15zm-225-106c0-24.813 20.187-45 45-45h120c19.555 0 36.228 12.542 42.42 30h-72.42c-6.466 0-12.204 4.143-14.238 10.28l-16.813 50.72h-43.949v-46c0-8.284-6.716-15-15-15s-15 6.716-15 15v61c0 8.284 6.716 15 15 15h49.004l-9.945 30h-39.059c-24.813 0-45-20.187-45-45z"/><path d="m210 166c0-41.355-33.645-75-75-75s-75 33.645-75 75 33.645 75 75 75 75-33.645 75-75zm-75 45c-24.813 0-45-20.187-45-45s20.187-45 45-45 45 20.187 45 45-20.187 45-45 45z"/></g></svg>
