<?xml version="1.0" encoding="iso-8859-1"?>
<!-- Generator: Adobe Illustrator 19.0.0, SVG Export Plug-In . SVG Version: 6.00 Build 0)  -->
<svg version="1.1" id="Layer_1" xmlns="http://www.w3.org/2000/svg" xmlns:xlink="http://www.w3.org/1999/xlink" x="0px" y="0px"
	 viewBox="0 0 512 512" style="enable-background:new 0 0 512 512;" xml:space="preserve">
<g>
	<g>
		<path d="M512,23.518L488.482,0l-88.443,88.443l-27.926-27.926L237.028,70.849L0,307.876L204.124,512l237.028-237.029
			l10.332-135.085l-27.926-27.926L512,23.518z M408.928,260.159L204.124,464.963L47.037,307.876L251.84,103.072l107.565-8.226
			l17.115,17.115l-20.429,20.429c-16.873-7.422-37.321-4.247-51.119,9.551c-17.944,17.945-17.944,47.141,0,65.086
			c8.972,8.971,20.757,13.457,32.542,13.457s23.57-4.486,32.542-13.457c13.798-13.798,16.974-34.246,9.551-51.119l20.429-20.429
			l17.117,17.114L408.928,260.159z M346.541,183.508c-4.977,4.977-13.073,4.976-18.049,0c-4.976-4.976-4.976-13.073,0-18.049
			c2.488-2.488,5.756-3.732,9.024-3.732s6.537,1.244,9.024,3.732C351.516,170.436,351.516,178.533,346.541,183.508z"/>
	</g>
</g>
<g>
	<g>
		
			<rect x="108.483" y="247.449" transform="matrix(0.7071 -0.7071 0.7071 0.7071 -132.7295 207.7203)" width="151.785" height="33.259"/>
	</g>
</g>
<g>
	<g>
		
			<rect x="172.022" y="311" transform="matrix(0.7071 -0.7071 0.7071 0.7071 -159.0569 271.2626)" width="151.785" height="33.259"/>
	</g>
</g>
<g>
</g>
<g>
</g>
<g>
</g>
<g>
</g>
<g>
</g>
<g>
</g>
<g>
</g>
<g>
</g>
<g>
</g>
<g>
</g>
<g>
</g>
<g>
</g>
<g>
</g>
<g>
</g>
<g>
</g>
</svg>
